<svg width="164" height="165" xmlns="http://www.w3.org/2000/svg" xmlns:xlink="http://www.w3.org/1999/xlink" overflow="hidden">
    <defs>
        <clipPath id="clip0">
            <rect x="558" y="110" width="164" height="165"/>
        </clipPath>
    </defs>
    <g clip-path="url(#clip0)" transform="translate(-558 -110)">
        <path d="M558 192C558 146.713 594.713 110 640 110 685.287 110 722 146.713 722 192 722 237.287 685.287 274 640 274 594.713 274 558 237.287 558 192Z" fill="#48779E" fill-rule="evenodd"/>
        <path d="M640.516 193C628.642 193.009 619.009 183.39 619 171.516 618.991 159.642 628.609 150.009 640.484 150 640.489 150 640.495 150 640.5 150L640.5 171.5Z" fill="#DEDEDE" fill-rule="evenodd"/>
        <path d="M21.5164 43C9.64225 43.009 0.00904611 33.3905 1.03395e-05 21.5164-0.00902543 9.64225 9.60952 0.00904758 21.4836 1.18091e-05 21.4891 7.65909e-06 21.4945 5.58411e-06 21.5 5.58411e-06L21.5 21.5Z" fill="#C7C7C7" fill-rule="evenodd" transform="matrix(-1 -8.74228e-08 -8.74228e-08 1 661 150)"/>
        <path d="M600 233.358C600.077 211.046 617.963 193 640 193L640 233.5Z" fill="#DEDEDE" fill-rule="evenodd"/>
        <path d="M0.000708662 40.2615C0.130226 17.9874 18.0006-3.03934e-05 40.0001-3.03934e-05L40 40.5Z" fill="#C7C7C7" fill-rule="evenodd" transform="matrix(-1 -8.74228e-08 -8.74228e-08 1 680 193)"/>
    </g>
</svg>