<svg width="232" height="234" xmlns="http://www.w3.org/2000/svg" xmlns:xlink="http://www.w3.org/1999/xlink" overflow="hidden"><defs><clipPath id="clip0"><rect x="152" y="243" width="232" height="234"/></clipPath></defs><g clip-path="url(#clip0)" transform="translate(-152 -243)"><path d="M268.589 477C204.248 477.049 152.049 424.707 152 360.089 151.951 295.472 204.07 243.049 268.411 243 268.441 243 268.47 243 268.5 243L268.5 360Z" fill="#DEDEDE" fill-rule="evenodd"/><path d="M116.589 234C52.2479 234.049 0.0492278 181.707 5.64119e-05 117.089-0.049115 52.4721 52.0698 0.0494487 116.411 6.62683e-05 116.441 4.34904e-05 116.47 3.21015e-05 116.5 3.21015e-05L116.5 117Z" fill="#C7C7C7" fill-rule="evenodd" transform="matrix(-1 0 0 1 383 243)"/><path d="M235.513 415.545C249.568 410.12 273.577 410.752 289.139 416.957 291.569 417.925 293.704 418.999 295.493 420.152" stroke="#33546F" stroke-width="8" stroke-linecap="round" stroke-linejoin="round" stroke-miterlimit="10" fill="none" fill-rule="evenodd"/><path d="M237.624 342.297C232.387 348.931 222.939 349.922 216.519 344.511 214.534 342.838 212.997 340.669 212.054 338.208" stroke="#33546F" stroke-width="8" stroke-linecap="round" stroke-linejoin="round" stroke-miterlimit="10" fill="none" fill-rule="evenodd"/><path d="M326.976 350.418C321.764 356.888 312.15 358.049 305.502 353.012 303.901 351.799 302.567 350.288 301.577 348.567" stroke="#33546F" stroke-width="8" stroke-linecap="round" stroke-linejoin="round" stroke-miterlimit="10" fill="none" fill-rule="evenodd"/></g></svg>